<svg xmlns="http://www.w3.org/2000/svg" width="19" height="12.667" viewBox="0 0 19 12.667">
    <path fill="#707070" d="M18.885 10.352A10.58 10.58 0 0 0 9.5 4.5a10.582 10.582 0 0 0-9.385 5.852 1.067 1.067 0 0 0 0 .963A10.58 10.58 0 0 0 9.5 17.167a10.582 10.582 0 0 0 9.385-5.852 1.067 1.067 0 0 0 0-.963zM9.5 15.583a4.75 4.75 0 1 1 4.75-4.75 4.75 4.75 0 0 1-4.75 4.75zm0-7.917a3.144 3.144 0 0 0-.835.125A1.578 1.578 0 0 1 6.458 10 3.159 3.159 0 1 0 9.5 7.667z" transform="translate(0 -4.5)"/>
</svg>
