<?xml version="1.0" encoding="UTF-8"?><svg xmlns="http://www.w3.org/2000/svg" viewBox="0 0 100 85.15"><defs><style>.d{fill:#fff;}</style></defs><g id="a"/><g id="b"><g id="c"><g transform="translate(0.000000,512.000000) scale(0.100000,-0.100000)"><path class="d" d="M23.78,.97c-2.56,3.12-7.36,10.03-10.11,14.64C5.91,28.51,1.24,41.89,.14,54.17c-.29,3.35-.12,9.99,.31,12.12,1.84,8.99,8.44,15.94,17.41,18.3,2.32,.6,6.99,.76,9.51,.31,13.73-2.38,22.37-16.08,18.59-29.42-.62-2.15-2.01-5.11-3.23-6.93-2.21-3.27-6.22-6.55-9.9-8.15-1.94-.85-4.86-1.63-6.86-1.84q-1.41-.14-1.61-.91c-.79-3-1.24-7.46-1.24-12.63,0-7.13,1.08-14.82,2.98-21.42,.31-1.01,.54-2.07,.54-2.38,0-.7-.6-1.22-1.39-1.22-.52,0-.81,.21-1.47,.97Zm-2.4,10.63c-.91,5.29-1.05,7.05-1.05,13.42s.17,8.27,1.24,13.13c.64,2.85,.95,3.2,2.85,3.2,3.1,0,7.28,1.34,10.23,3.29,10.56,6.95,12.45,21.36,4.03,30.97-2.32,2.67-6.33,5.11-9.99,6.1-2.38,.64-7.98,.68-10.23,.08-7.4-2.01-12.92-7.5-14.93-14.91-.54-2.01-.56-2.21-.56-7.75,0-4.78,.06-6.14,.43-8.48,1.67-10.67,5.44-20.94,11.64-31.73,1.98-3.47,6.57-10.54,6.74-10.38,.04,.04-.14,1.43-.41,3.06Z"/><path class="d" d="M76.72,1.28c-6.57,8.37-12.51,18.09-16.35,26.84-3.23,7.3-5.52,14.99-6.55,21.87-.74,5.09-.87,11.7-.29,15.46,.48,3.1,2.01,7.03,3.74,9.53,3.08,4.49,8.17,8.06,13.5,9.51,1.9,.52,2.38,.56,5.89,.56s4.01-.04,5.85-.56c7.36-1.98,13.44-7.46,16.06-14.47,1.84-4.92,1.9-10.87,.17-15.84-2.89-8.31-10.03-14.2-18.71-15.48l-2.32-.33-.23-1.05c-2.13-9.92-1.43-22.45,1.9-33.99q.6-2.15,.21-2.69c-.27-.37-.62-.56-1.12-.6-.68-.06-.81,.04-1.76,1.24Zm-1.84,8.54c-1.98,9.41-2.01,20.36-.06,28.68,.6,2.6,.7,2.67,3.31,2.87,8.64,.68,15.8,6.53,18.32,14.97,.5,1.67,.54,2.19,.56,5.38,.02,3.1-.04,3.72-.48,5.27-1.03,3.68-2.77,6.72-5.38,9.32-2.56,2.54-5.64,4.36-9.22,5.4-1.47,.41-2.09,.48-5.38,.45-3.45,0-3.87-.04-5.56-.56-3.37-1.03-5.97-2.54-8.44-4.86-3.72-3.51-5.87-7.98-6.37-13.23-.87-9.1,1.01-19.79,5.4-30.95,1.51-3.85,5.19-11.27,7.42-14.99,1.86-3.1,6-9.37,6.1-9.26,.04,.04-.06,.72-.23,1.51Z"/></g></g></g></svg>